<svg width="80" height="60" xmlns="http://www.w3.org/2000/svg" xmlns:xlink="http://www.w3.org/1999/xlink"><defs><path id="a" d="M.147.163h25.5v25.2H.147z"/><path id="c" d="M.141.08h9.32v9.211H.142z"/></defs><g fill="none" fill-rule="evenodd"><g transform="translate(41.541 .1)"><mask id="b" fill="#fff"><use xlink:href="#a"/></mask><path d="M.147 12.763c0 6.959 5.708 12.6 12.75 12.6 7.041 0 12.75-5.641 12.75-12.6 0-6.958-5.709-12.6-12.75-12.6-7.042 0-12.75 5.642-12.75 12.6" fill="#E5E1FF" mask="url(#b)"/></g><path stroke="#764FE0" stroke-width="3.2" stroke-linecap="round" stroke-linejoin="round" d="M74.836 30.575H36.413l17.923-17.712"/><path d="M21.576 30.575c0 5.888-4.83 10.661-10.788 10.661S0 36.463 0 30.576c0-5.889 4.83-10.662 10.788-10.662s10.788 4.773 10.788 10.661" fill="#E5E1FF"/><path d="M49.112 12.863c0 2.907 2.385 5.263 5.326 5.263 2.942 0 5.326-2.356 5.326-5.263S57.38 7.6 54.438 7.6c-2.941 0-5.326 2.356-5.326 5.263" fill="#ABA3EF"/><path d="M36.414 30.575H10.52m25.846 0L21.815 53.781m14.599-23.206L23 10.26" stroke="#764FE0" stroke-width="3.2" stroke-linecap="round" stroke-linejoin="round"/><path d="M50.068 49.176c0 5.888 4.83 10.66 10.788 10.66s10.787-4.772 10.787-10.66-4.83-10.661-10.787-10.661c-5.958 0-10.788 4.773-10.788 10.66" fill="#E5E1FF"/><path stroke="#764FE0" stroke-width="3.2" stroke-linecap="round" stroke-linejoin="round" d="M36.414 30.575l5.274 18.6h19.168"/><path d="M43.737 30.575c0 3.997-3.28 7.237-7.323 7.237-4.045 0-7.323-3.24-7.323-7.237s3.278-7.237 7.323-7.237c4.044 0 7.323 3.24 7.323 7.237m12.459 18.601c0 2.543 2.086 4.605 4.66 4.605 2.573 0 4.66-2.062 4.66-4.605 0-2.544-2.087-4.605-4.66-4.605-2.574 0-4.66 2.061-4.66 4.605m-29.721 4.605c0 2.543-2.086 4.605-4.66 4.605-2.574 0-4.66-2.062-4.66-4.605 0-2.543 2.086-4.605 4.66-4.605 2.574 0 4.66 2.062 4.66 4.605M16.114 30.575c0 2.907-2.385 5.263-5.326 5.263-2.942 0-5.326-2.356-5.326-5.263s2.384-5.263 5.326-5.263c2.941 0 5.326 2.356 5.326 5.263M27.66 10.259c0 2.543-2.086 4.605-4.66 4.605-2.573 0-4.66-2.062-4.66-4.605 0-2.544 2.087-4.606 4.66-4.606 2.574 0 4.66 2.062 4.66 4.606" fill="#ABA3EF"/><g transform="translate(70.034 25.89)"><mask id="d" fill="#fff"><use xlink:href="#c"/></mask><path d="M9.462 4.686c0 2.543-2.087 4.605-4.66 4.605-2.574 0-4.66-2.062-4.66-4.605C.141 2.142 2.227.08 4.801.08c2.573 0 4.66 2.061 4.66 4.605" fill="#ABA3EF" mask="url(#d)"/></g></g></svg>