<svg width="73" height="60" xmlns="http://www.w3.org/2000/svg" xmlns:xlink="http://www.w3.org/1999/xlink"><defs><path id="a" d="M0 .064h50.802v45.68H0z"/><path id="c" d="M0 .064h36.89v45.68H0z"/><path id="e" d="M.049.155H38.96v34.988H.049z"/></defs><g fill="none" fill-rule="evenodd"><g transform="translate(0 .222)"><mask id="b" fill="#fff"><use xlink:href="#a"/></mask><path d="M42.42 20.403H30.004a1.507 1.507 0 0 1-1.505-1.51c0-.834.674-1.51 1.505-1.51H42.42c.83 0 1.505.676 1.505 1.51s-.674 1.51-1.505 1.51m-35.013.414a1.92 1.92 0 0 1-1.917-1.924 1.92 1.92 0 0 1 1.917-1.923 1.92 1.92 0 0 1 1.918 1.923 1.92 1.92 0 0 1-1.918 1.924M20.621 9.952c0-.834.57-1.51 1.271-1.51h13.726c.702 0 1.271.676 1.271 1.51s-.57 1.51-1.271 1.51H21.892c-.702 0-1.271-.676-1.271-1.51m-6.608 10.865a1.92 1.92 0 0 1-1.918-1.924 1.92 1.92 0 0 1 1.918-1.923 1.92 1.92 0 0 1 1.917 1.923 1.92 1.92 0 0 1-1.917 1.924M43.366.064H7.436C3.346.064 0 3.42 0 7.523v20.07c0 4.103 3.346 7.46 7.436 7.46l-.1 10.69 13.554-10.69h22.476c4.09 0 7.436-3.357 7.436-7.46V7.524c0-4.102-3.346-7.46-7.436-7.46" fill="#ABA3EF" mask="url(#b)"/></g><g transform="translate(0 .222)"><mask id="d" fill="#fff"><use xlink:href="#c"/></mask><path d="M7.408 20.817a1.92 1.92 0 0 1-1.918-1.924 1.92 1.92 0 0 1 1.918-1.923 1.92 1.92 0 0 1 1.917 1.923 1.92 1.92 0 0 1-1.917 1.924zm6.605 0a1.92 1.92 0 0 1-1.918-1.924 1.92 1.92 0 0 1 1.918-1.923 1.92 1.92 0 0 1 1.917 1.923 1.92 1.92 0 0 1-1.917 1.924zM7.436.064C3.346.064 0 3.42 0 7.523v20.071c0 4.102 3.346 7.458 7.436 7.458l-.1 10.691 13.555-10.69h15.998L7.436.063z" fill="#764FE0" mask="url(#d)"/></g><path d="M54.859.286h-.002" fill="#ABA3EF"/><path d="M20.621 10.174c0-.834.57-1.51 1.271-1.51h13.726c.702 0 1.271.676 1.271 1.51s-.57 1.51-1.271 1.51H21.892c-.702 0-1.271-.676-1.271-1.51M42.42 20.625H30.004a1.507 1.507 0 0 1-1.505-1.51c0-.834.674-1.51 1.505-1.51H42.42c.83 0 1.505.676 1.505 1.51s-.674 1.51-1.505 1.51m-28.407.413a1.92 1.92 0 0 1-1.918-1.923 1.92 1.92 0 0 1 1.918-1.924 1.92 1.92 0 0 1 1.917 1.924 1.92 1.92 0 0 1-1.917 1.923m-6.605 0a1.92 1.92 0 0 1-1.918-1.923 1.92 1.92 0 0 1 1.918-1.924 1.92 1.92 0 0 1 1.917 1.924 1.92 1.92 0 0 1-1.917 1.923" fill="#E5E1FF"/><g transform="translate(33.328 24.793)"><mask id="f" fill="#fff"><use xlink:href="#e"/></mask><path d="M.049 5.867v15.374c0 3.142 2.563 5.713 5.696 5.713H22.96l10.381 8.189-.076-8.189c3.133 0 5.696-2.57 5.696-5.713V5.867c0-3.142-2.563-5.712-5.696-5.712H5.745C2.612.155.049 2.725.049 5.867" fill="#E5E1FF" mask="url(#f)"/></g><path d="M60.217 41.508a1.47 1.47 0 0 1 1.469-1.473c.81 0 1.468.66 1.468 1.473a1.47 1.47 0 1 1-2.938 0m-5.059 0c0-.814.658-1.473 1.47-1.473.81 0 1.468.66 1.468 1.473 0 .814-.658 1.473-1.469 1.473s-1.469-.66-1.469-1.473m.363-5.562H45.007c-.538 0-.974-.518-.974-1.157 0-.638.436-1.156.974-1.156H55.52c.538 0 .974.518.974 1.156 0 .639-.436 1.157-.974 1.157m-16.876 5.692c0-.639.516-1.157 1.153-1.157h9.51c.637 0 1.153.518 1.153 1.157 0 .638-.516 1.156-1.153 1.156h-9.51a1.155 1.155 0 0 1-1.153-1.156" fill="#764FE0"/></g></svg>