<svg width="72" height="60" xmlns="http://www.w3.org/2000/svg" xmlns:xlink="http://www.w3.org/1999/xlink"><defs><path id="a" d="M0 .204h71.058v59.463H0z"/><path id="c" d="M0 .204h71.058v12.034H0z"/></defs><g fill="none" fill-rule="evenodd"><g transform="translate(0 .129)"><mask id="b" fill="#fff"><use xlink:href="#a"/></mask><path d="M71.058 8.467v42.937a8.263 8.263 0 0 1-8.263 8.263H8.263A8.263 8.263 0 0 1 0 51.404V8.467C0 3.904 3.7.204 8.263.204h54.532c4.564 0 8.263 3.7 8.263 8.263" fill="#ABA3EF" mask="url(#b)"/></g><g transform="translate(0 .129)"><mask id="d" fill="#fff"><use xlink:href="#c"/></mask><path d="M71.058 8.467v3.771H0v-3.77C0 3.903 3.7.203 8.263.203h54.532c4.564 0 8.263 3.7 8.263 8.263" fill="#764FE0" mask="url(#d)"/></g><path d="M36.436 46.901H17.474m29.011 0h9.39M22.663 25.503h18.86m11.104 0h6.285" stroke="#764FE0" stroke-width="5" stroke-linecap="round" stroke-linejoin="round"/><path d="M43.932 36.908h13.521m-32.167 0h11.622" stroke="#E5E1FF" stroke-width="5" stroke-linecap="round" stroke-linejoin="round"/><path stroke="#764FE0" stroke-width="5" stroke-linecap="round" stroke-linejoin="round" d="M9.258 27.949l4.949-4.95-4.511-4.511"/><path d="M16.134 8.619a2.113 2.113 0 1 1 0-4.226 2.113 2.113 0 0 1 0 4.226m-7.278 0a2.113 2.113 0 1 1 0-4.226 2.113 2.113 0 0 1 0 4.226" fill="#E5E1FF"/></g></svg>